<svg width="106" height="106" viewBox="0 0 106 106" fill="none" xmlns="http://www.w3.org/2000/svg">
<path d="M106 53C106 82.2711 82.2711 106 53 106C23.7289 106 0 82.2711 0 53C0 23.7289 23.7289 0 53 0C82.2711 0 106 23.7289 106 53ZM10.6 53C10.6 76.4169 29.5831 95.4 53 95.4C76.4169 95.4 95.4 76.4169 95.4 53C95.4 29.5831 76.4169 10.6 53 10.6C29.5831 10.6 10.6 29.5831 10.6 53Z" fill="#0E694B" fill-opacity="0.1"/>
<path d="M106 53C106 82.2711 82.2711 106 53 106C23.7289 106 0 82.2711 0 53C0 23.7289 23.7289 0 53 0C82.2711 0 106 23.7289 106 53ZM10.6 53C10.6 76.4169 29.5831 95.4 53 95.4C76.4169 95.4 95.4 76.4169 95.4 53C95.4 29.5831 76.4169 10.6 53 10.6C29.5831 10.6 10.6 29.5831 10.6 53Z" fill="#0043CE"/>
<path d="M33.4531 40.9219H36.9688V63H32V46.8438L28.7188 48.7031L26.5938 44.7031L33.4531 40.9219ZM49.3281 63.3906C47.6406 63.3906 46.1354 62.9115 44.8125 61.9531C43.4896 60.9844 42.4583 59.6302 41.7188 57.8906C40.9896 56.151 40.625 54.1719 40.625 51.9531C40.625 49.7344 40.9896 47.7552 41.7188 46.0156C42.4583 44.276 43.4896 42.9271 44.8125 41.9688C46.1354 41.0104 47.6406 40.5312 49.3281 40.5312C51.026 40.5312 52.5365 41.0104 53.8594 41.9688C55.1927 42.9271 56.224 44.276 56.9531 46.0156C57.6927 47.7448 58.0625 49.724 58.0625 51.9531C58.0625 55.3281 57.25 58.0781 55.625 60.2031C54 62.3281 51.901 63.3906 49.3281 63.3906ZM49.3281 58.6094C50.4115 58.6094 51.2917 57.9896 51.9688 56.75C52.6458 55.5104 52.9844 53.9115 52.9844 51.9531C52.9844 49.9948 52.6458 48.3958 51.9688 47.1562C51.2917 45.9167 50.4115 45.2969 49.3281 45.2969C48.276 45.2969 47.4115 45.9219 46.7344 47.1719C46.0573 48.4115 45.7188 50.0052 45.7188 51.9531C45.7188 53.901 46.0573 55.5 46.7344 56.75C47.4115 57.9896 48.276 58.6094 49.3281 58.6094ZM69.5156 63.3906C67.8281 63.3906 66.3229 62.9115 65 61.9531C63.6771 60.9844 62.6458 59.6302 61.9062 57.8906C61.1771 56.151 60.8125 54.1719 60.8125 51.9531C60.8125 49.7344 61.1771 47.7552 61.9062 46.0156C62.6458 44.276 63.6771 42.9271 65 41.9688C66.3229 41.0104 67.8281 40.5312 69.5156 40.5312C71.2135 40.5312 72.724 41.0104 74.0469 41.9688C75.3802 42.9271 76.4115 44.276 77.1406 46.0156C77.8802 47.7448 78.25 49.724 78.25 51.9531C78.25 55.3281 77.4375 58.0781 75.8125 60.2031C74.1875 62.3281 72.0885 63.3906 69.5156 63.3906ZM69.5156 58.6094C70.599 58.6094 71.4792 57.9896 72.1562 56.75C72.8333 55.5104 73.1719 53.9115 73.1719 51.9531C73.1719 49.9948 72.8333 48.3958 72.1562 47.1562C71.4792 45.9167 70.599 45.2969 69.5156 45.2969C68.4635 45.2969 67.599 45.9219 66.9219 47.1719C66.2448 48.4115 65.9062 50.0052 65.9062 51.9531C65.9062 53.901 66.2448 55.5 66.9219 56.75C67.599 57.9896 68.4635 58.6094 69.5156 58.6094Z" fill="#0043CE"/>
</svg>
