<svg width="106" height="106" viewBox="0 0 106 106" fill="none" xmlns="http://www.w3.org/2000/svg">
<path d="M106 53C106 82.2711 82.2711 106 53 106C23.7289 106 0 82.2711 0 53C0 23.7289 23.7289 0 53 0C82.2711 0 106 23.7289 106 53ZM10.6 53C10.6 76.4169 29.5831 95.4 53 95.4C76.4169 95.4 95.4 76.4169 95.4 53C95.4 29.5831 76.4169 10.6 53 10.6C29.5831 10.6 10.6 29.5831 10.6 53Z" fill="#0E694B" fill-opacity="0.1"/>
<path d="M53 5.3C53 2.37289 55.3789 -0.0274997 58.2914 0.264652C70.1618 1.45537 81.3426 6.62659 89.9658 15.0193C99.8608 24.6499 105.607 37.7619 105.981 51.5648C106.354 65.3677 101.327 78.7715 91.9678 88.9237C82.6087 99.0759 69.6571 105.175 55.8694 105.922C42.0817 106.67 28.5466 102.007 18.1447 92.9263C7.74281 83.8455 1.29548 71.0638 0.174838 57.3014C-0.9458 43.539 3.34875 29.8826 12.1445 19.2387C19.8097 9.96282 30.3659 3.61304 42.0379 1.14589C44.9017 0.540558 47.5262 2.66967 47.8427 5.57962C48.1592 8.48957 46.0438 11.0721 43.196 11.7489C34.27 13.8701 26.2205 18.8452 20.3156 25.9909C13.279 34.5061 9.84336 45.4312 10.7399 56.4411C11.6364 67.451 16.7943 77.6764 25.1158 84.941C33.4373 92.2056 44.2653 95.9359 55.2955 95.3378C66.3257 94.7398 76.6869 89.8607 84.1742 81.739C91.6615 73.6172 95.6836 62.8941 95.3845 51.8518C95.0853 40.8095 90.4886 30.3199 82.5726 22.6154C75.9297 16.1501 67.3895 12.0744 58.2864 10.9307C55.3822 10.5658 53 8.22711 53 5.3Z" fill="#0E694B"/>
<path d="M43.5469 40.5312C46.1094 40.5312 48.1615 41.3646 49.7031 43.0312C51.2552 44.6979 52.0312 46.9062 52.0312 49.6562C52.0312 51.3854 51.7083 53.0417 51.0625 54.625C50.4271 56.2083 49.5208 57.625 48.3438 58.875C47.1771 60.1146 45.7135 61.1406 43.9531 61.9531C42.1927 62.7552 40.2552 63.2344 38.1406 63.3906L37.1875 58.7812C39.1771 58.6146 40.901 58.1042 42.3594 57.25C43.8177 56.3854 44.9062 55.349 45.625 54.1406C44.5729 54.7969 43.3698 55.125 42.0156 55.125C40.0781 55.125 38.4531 54.4479 37.1406 53.0938C35.8281 51.7292 35.1719 50.0625 35.1719 48.0938C35.1719 46.6667 35.5365 45.375 36.2656 44.2188C36.9948 43.0625 37.9948 42.1615 39.2656 41.5156C40.5469 40.8594 41.974 40.5312 43.5469 40.5312ZM40.25 47.9844C40.25 48.7344 40.5573 49.3594 41.1719 49.8594C41.7969 50.3594 42.5781 50.6094 43.5156 50.6094C44.4531 50.6094 45.2552 50.3802 45.9219 49.9219C46.599 49.4635 46.9375 48.8438 46.9375 48.0625C46.9375 47.2708 46.6198 46.6146 45.9844 46.0938C45.3594 45.5625 44.5573 45.2969 43.5781 45.2969C42.6302 45.2969 41.8385 45.5573 41.2031 46.0781C40.5677 46.5885 40.25 47.224 40.25 47.9844ZM62.0156 40.5312C64.5781 40.5312 66.6302 41.3646 68.1719 43.0312C69.724 44.6979 70.5 46.9062 70.5 49.6562C70.5 51.3854 70.1771 53.0417 69.5312 54.625C68.8958 56.2083 67.9896 57.625 66.8125 58.875C65.6458 60.1146 64.1823 61.1406 62.4219 61.9531C60.6615 62.7552 58.724 63.2344 56.6094 63.3906L55.6562 58.7812C57.6458 58.6146 59.3698 58.1042 60.8281 57.25C62.2865 56.3854 63.375 55.349 64.0938 54.1406C63.0417 54.7969 61.8385 55.125 60.4844 55.125C58.5469 55.125 56.9219 54.4479 55.6094 53.0938C54.2969 51.7292 53.6406 50.0625 53.6406 48.0938C53.6406 46.6667 54.0052 45.375 54.7344 44.2188C55.4635 43.0625 56.4635 42.1615 57.7344 41.5156C59.0156 40.8594 60.4427 40.5312 62.0156 40.5312ZM58.7188 47.9844C58.7188 48.7344 59.026 49.3594 59.6406 49.8594C60.2656 50.3594 61.0469 50.6094 61.9844 50.6094C62.9219 50.6094 63.724 50.3802 64.3906 49.9219C65.0677 49.4635 65.4062 48.8438 65.4062 48.0625C65.4062 47.2708 65.0885 46.6146 64.4531 46.0938C63.8281 45.5625 63.026 45.2969 62.0469 45.2969C61.099 45.2969 60.3073 45.5573 59.6719 46.0781C59.0365 46.5885 58.7188 47.224 58.7188 47.9844Z" fill="#0E694B"/>
</svg>
