<svg width="106" height="106" viewBox="0 0 106 106" fill="none" xmlns="http://www.w3.org/2000/svg">
<path d="M106 53C106 82.2711 82.2711 106 53 106C23.7289 106 0 82.2711 0 53C0 23.7289 23.7289 0 53 0C82.2711 0 106 23.7289 106 53ZM10.6 53C10.6 76.4169 29.5831 95.4 53 95.4C76.4169 95.4 95.4 76.4169 95.4 53C95.4 29.5831 76.4169 10.6 53 10.6C29.5831 10.6 10.6 29.5831 10.6 53Z" fill="#81B52C" fill-opacity="0.1"/>
<path d="M53 5.3C53 2.37289 55.379 -0.0274793 58.2915 0.264713C69.0076 1.3398 79.1889 5.66142 87.4389 12.714C97.0374 20.9194 103.391 32.2822 105.355 44.7562C107.319 57.2302 104.765 69.9956 98.1524 80.7535C91.5399 91.5115 81.3036 99.5549 69.287 103.435C57.2703 107.316 44.263 106.778 32.6074 101.92C20.9519 97.0611 11.4141 88.2005 5.71173 76.9336C0.00934213 65.6668 -1.48291 52.7342 1.5037 40.4648C4.07073 29.9191 9.80157 20.459 17.865 13.3195C20.0565 11.3791 23.3901 11.9347 25.102 14.309C26.814 16.6833 26.2495 19.9735 24.1072 21.9681C18.0692 27.5899 13.7723 34.8815 11.803 42.9718C9.41367 52.7874 10.6075 63.1335 15.1694 72.1469C19.7313 81.1604 27.3615 88.2489 36.6859 92.1358C46.0104 96.0228 56.4162 96.4528 66.0296 93.3484C75.6429 90.244 83.8319 83.8092 89.1219 75.2028C94.4119 66.5965 96.4553 56.3841 94.8839 46.4049C93.3126 36.4258 88.2299 27.3355 80.5511 20.7712C74.222 15.3607 66.472 11.9593 58.2865 10.9308C55.3822 10.5658 53 8.22711 53 5.3Z" fill="#81B52C"/>
<path d="M50.2031 51.5469C51.224 52.1302 52.0208 52.875 52.5938 53.7812C53.1771 54.6771 53.4688 55.6615 53.4688 56.7344C53.4688 57.9635 53.099 59.0885 52.3594 60.1094C51.6198 61.1302 50.599 61.9323 49.2969 62.5156C47.9948 63.099 46.5469 63.3906 44.9531 63.3906C43.3802 63.3906 41.9479 63.1042 40.6562 62.5312C39.3646 61.9479 38.349 61.1458 37.6094 60.125C36.8802 59.1042 36.5156 57.974 36.5156 56.7344C36.5156 55.6615 36.7969 54.6771 37.3594 53.7812C37.9323 52.875 38.724 52.1302 39.7344 51.5469C38.8594 50.974 38.1771 50.2812 37.6875 49.4688C37.1979 48.6458 36.9531 47.75 36.9531 46.7812C36.9531 45.0208 37.7083 43.5417 39.2188 42.3438C40.7396 41.1354 42.651 40.5312 44.9531 40.5312C47.2552 40.5312 49.1719 41.1354 50.7031 42.3438C52.2448 43.5417 53.0156 45.0208 53.0156 46.7812C53.0156 47.75 52.7656 48.6458 52.2656 49.4688C51.776 50.2812 51.0885 50.974 50.2031 51.5469ZM44.9531 45.2969C44.1198 45.2969 43.4271 45.4844 42.875 45.8594C42.3229 46.2344 42.0469 46.7083 42.0469 47.2812C42.0469 47.8542 42.3229 48.3333 42.875 48.7188C43.4271 49.1042 44.1198 49.2969 44.9531 49.2969C45.8073 49.2969 46.5156 49.1042 47.0781 48.7188C47.651 48.3333 47.9375 47.8542 47.9375 47.2812C47.9375 46.7083 47.651 46.2344 47.0781 45.8594C46.5156 45.4844 45.8073 45.2969 44.9531 45.2969ZM44.9531 58.6094C45.9323 58.6094 46.7396 58.3854 47.375 57.9375C48.0208 57.4896 48.3438 56.9271 48.3438 56.25C48.3438 55.5729 48.0208 55.0104 47.375 54.5625C46.7292 54.1042 45.9219 53.875 44.9531 53.875C44.0052 53.875 43.2083 54.1042 42.5625 54.5625C41.9167 55.0208 41.5938 55.5833 41.5938 56.25C41.5938 56.9167 41.9167 57.4792 42.5625 57.9375C43.2083 58.3854 44.0052 58.6094 44.9531 58.6094ZM54.9219 40.9219H69.7344V44.8281L61.6406 63H56.0625L63.875 45.5938H54.9219V40.9219Z" fill="#81B52C"/>
</svg>
