<svg width="16" height="16" viewBox="0 0 16 16" fill="none" xmlns="http://www.w3.org/2000/svg">
<path d="M6.66675 10.3334C6.39341 10.3334 6.16675 10.56 6.16675 10.8334V11.8334C6.16675 12.1067 6.39341 12.3334 6.66675 12.3334C6.94008 12.3334 7.16675 12.1067 7.16675 11.8334V10.8334C7.16675 10.56 6.94008 10.3334 6.66675 10.3334Z" fill="#666666"/>
<path d="M13.4999 14.1667V14.6667H11.8333V14.1667V8.33335C11.8333 7.50388 11.1627 6.83335 10.3333 6.83335H5.66659C4.83711 6.83335 4.16659 7.50388 4.16659 8.33335V14.1667V14.6667H2.46437L2.46658 14.1689L2.49991 6.6489H2.49992V6.64669C2.49992 6.39361 2.61587 6.15317 2.81966 5.99513L2.82007 5.99482L7.48673 2.36815L7.48675 2.36817L7.49027 2.36538C7.78841 2.12935 8.21142 2.12935 8.50957 2.36538L8.50955 2.36539L8.5131 2.36815L13.1798 5.99482L13.1802 5.99513C13.3829 6.15235 13.4999 6.39225 13.4999 6.65335V14.1667ZM8.99992 4.00002H6.99992C6.45044 4.00002 5.99992 4.45055 5.99992 5.00002C5.99992 5.5495 6.45044 6.00002 6.99992 6.00002H8.99992C9.54939 6.00002 9.99992 5.5495 9.99992 5.00002C9.99992 4.45055 9.54939 4.00002 8.99992 4.00002Z" fill="#666666" stroke="#666666"/>
</svg>
