<svg width="16" height="16" viewBox="0 0 16 16" fill="none" xmlns="http://www.w3.org/2000/svg">
<g clip-path="url(#clip0_1460_3406)">
<path d="M4.66675 8.66671C5.77341 8.66671 6.66675 7.77337 6.66675 6.66671C6.66675 5.56004 5.77341 4.66671 4.66675 4.66671C3.56008 4.66671 2.66675 5.56004 2.66675 6.66671C2.66675 7.77337 3.56008 8.66671 4.66675 8.66671ZM12.6667 4.66671H8.66675C7.93341 4.66671 7.33342 5.26671 7.33342 6.00004V9.33337H2.00008V4.00004C2.00008 3.63337 1.70008 3.33337 1.33341 3.33337C0.966748 3.33337 0.666748 3.63337 0.666748 4.00004V12.6667C0.666748 13.0334 0.966748 13.3334 1.33341 13.3334C1.70008 13.3334 2.00008 13.0334 2.00008 12.6667V11.3334H14.0001V12.6667C14.0001 13.0334 14.3001 13.3334 14.6667 13.3334C15.0334 13.3334 15.3334 13.0334 15.3334 12.6667V7.33337C15.3334 5.86004 14.1401 4.66671 12.6667 4.66671Z" fill="#666666"/>
</g>
<defs>
<clipPath id="clip0_1460_3406">
<rect width="16" height="16" fill="white"/>
</clipPath>
</defs>
</svg>
